<?xml version="1.0" encoding="UTF-8" standalone="no"?>
<!-- Generator: Adobe Illustrator 19.2.1, SVG Export Plug-In . SVG Version: 6.00 Build 0)  -->

<svg
   xmlns:dc="http://purl.org/dc/elements/1.1/"
   xmlns:cc="http://creativecommons.org/ns#"
   xmlns:rdf="http://www.w3.org/1999/02/22-rdf-syntax-ns#"
   xmlns:svg="http://www.w3.org/2000/svg"
   xmlns="http://www.w3.org/2000/svg"
   xmlns:sodipodi="http://sodipodi.sourceforge.net/DTD/sodipodi-0.dtd"
   xmlns:inkscape="http://www.inkscape.org/namespaces/inkscape"
   version="1.1"
   id="Página_inicial"
   x="0px"
   y="0px"
   viewBox="0 0 148 30"
   style="enable-background:new 0 0 148 30;"
   xml:space="preserve"
   sodipodi:docname="mio.svg"
   inkscape:version="0.92.1 r15371"><metadata
     id="metadata3845"><rdf:RDF><cc:Work
         rdf:about=""><dc:format>image/svg+xml</dc:format><dc:type
           rdf:resource="http://purl.org/dc/dcmitype/StillImage" /><dc:title>logo</dc:title></cc:Work></rdf:RDF></metadata><defs
     id="defs3843" /><sodipodi:namedview
     pagecolor="#ffffff"
     bordercolor="#666666"
     borderopacity="1"
     objecttolerance="10"
     gridtolerance="10"
     guidetolerance="10"
     inkscape:pageopacity="0"
     inkscape:pageshadow="2"
     inkscape:window-width="1920"
     inkscape:window-height="1016"
     id="namedview3841"
     showgrid="false"
     inkscape:zoom="4.1327525"
     inkscape:cx="59.861436"
     inkscape:cy="-24.211047"
     inkscape:window-x="0"
     inkscape:window-y="27"
     inkscape:window-maximized="1"
     inkscape:current-layer="Página_inicial"
     inkscape:pagecheckerboard="true" /><style
     type="text/css"
     id="style3819">
	.st0{fill:#070707;}
	.st1{fill:#12AFAF;}
</style><title
     id="title3821">logo</title><path
     class="st0"
     d="M47.2,24.9V4.7h3.6l3.1,7.9c0.6,1.6,1.6,4.2,2.2,5.9h0.1c-0.1-2.1-0.4-5.7-0.4-9.4V4.7h3.5v20.2h-3.6l-3.1-7.7  c-0.8-2-1.4-4-2-6.1h-0.1c0.1,2,0.2,5.2,0.2,9.2v4.6H47.2L47.2,24.9z"
     id="path3823"
     style="fill:#ffffff;fill-opacity:1" /><path
     class="st0"
     d="M71.3,16h-4.6v5.5h5.2v3.4h-9.2V4.7h8.8v3.4h-4.9v4.7h4.6L71.3,16L71.3,16z"
     id="path3825"
     style="fill:#ffffff;fill-opacity:1" /><path
     class="st0"
     d="M76.8,8.3h-3.6V4.7h11.1v3.6h-3.6v16.6h-3.9V8.3z"
     id="path3827"
     style="fill:#ffffff;fill-opacity:1" /><path
     class="st0"
     d="M89,24.9L85.5,4.6h4.1l1,8.1c0.3,2.3,0.5,4.6,0.7,7.1h0.1c0.3-2.5,0.7-4.7,1.1-7.1l1.4-8.1h3.2l1.4,8  c0.4,2.3,0.7,4.5,1,7.2h0.1c0.3-2.6,0.5-4.8,0.8-7.2l1-8h3.8l-3.6,20.3h-4.1l-1.2-6.6c-0.3-1.9-0.6-4.2-0.9-6.6h-0.1  c-0.4,2.4-0.7,4.7-1.1,6.7L92.8,25L89,24.9L89,24.9z"
     id="path3829"
     style="fill:#ffffff;fill-opacity:1" /><path
     class="st0"
     d="M119.3,14.4c0,7.6-2.7,10.7-6.6,10.7s-6.4-4.9-6.4-10.4s2.2-10.3,6.7-10.3S119.3,9.8,119.3,14.4z M110.4,14.8  c0,4.6,0.9,6.9,2.5,6.9s2.3-3,2.3-7.1s-0.5-6.8-2.3-6.8S110.4,10.4,110.4,14.8z"
     id="path3831"
     style="fill:#ffffff;fill-opacity:1" /><path
     class="st0"
     d="M121.8,5c1.4-0.3,2.9-0.4,4.3-0.4c2.2,0,4.1,0.3,5.4,1.5c1.1,1.1,1.7,2.6,1.6,4.2c0.1,2.2-1.1,4.2-3.1,5.1l0,0  c1.4,0.5,2.1,1.8,2.5,4c0.3,1.9,0.7,3.7,1.3,5.5h-4.1c-0.5-1.6-0.8-3.2-1-4.8c-0.4-2.5-1-3.2-2.3-3.2h-0.6V25h-3.9L121.8,5L121.8,5z   M125.7,13.8h0.7c1.7,0,2.7-1.4,2.7-3.2s-0.7-2.9-2.5-3h-0.9v6L125.7,13.8z"
     id="path3833"
     style="fill:#ffffff;fill-opacity:1" /><path
     class="st0"
     d="M135.9,4.7h3.9v9.1h0.1l1-2.6l2.7-6.5h4.3l-4.5,8.8L148,25h-4.3l-2.9-8.4l-0.9,1.7V25h-4L135.9,4.7L135.9,4.7z"
     id="path3835"
     style="fill:#ffffff;fill-opacity:1" /><g
     id="Logo"><g
       id="xamagon"><path
         id="Logo-2"
         class="st1"
         d="M9.9,0C9,0,8.1,0.5,7.6,1.3L0.3,13.9c-0.4,0.8-0.4,1.8,0,2.6l7.3,12.4C8.1,29.6,9,30.1,9.9,30    h14.6c0.9,0.1,1.8-0.4,2.3-1.1l7.3-12.5c0.5-0.8,0.5-1.8,0-2.6L26.8,1.3C26.3,0.5,25.4,0,24.5,0H9.9z M10,7.1h2.6    c0.1,0.1,0.2,0.2,0.3,0.3l4.3,7.6v0.2l0,0l4.3-7.7c0.1-0.1,0.2-0.2,0.3-0.3h2.5c0.2,0.1,0.4,0.4,0.3,0.6l-4.2,7.5l4.2,7.4    c0.1,0.2-0.1,0.4-0.3,0.5l0,0h-2.5L21.5,23l-4.3-7.5h-0.1L12.8,23l-0.3,0.2H10c-0.2,0-0.3,0-0.4-0.2c0-0.1,0-0.2,0.1-0.3l4.2-7.4    L9.7,7.8c-0.1-0.2,0-0.4,0.2-0.5l0,0L10,7.1z" /></g></g></svg>